REM DIRINDEX 1\3,1\2\4,1\2\5,1\2\6
REM DIRNAME cjc137,folder01,folder02,folder03,folder04,folder05
TITLE ""
FILE "027.mp3" MP3
  TRACK 01 AUDIO
    TITLE "4:cjc137_1095"
    INDEX 01 00:00:00
  TRACK 02 AUDIO
    TITLE "0:"
    INDEX 01 00:01:09
  TRACK 03 AUDIO
    TITLE "6:cjc137_1096"
    INDEX 01 00:01:13
  TRACK 04 AUDIO
    TITLE "0:"
    INDEX 01 00:02:10
  TRACK 05 AUDIO
    TITLE "5:cjc137_1097"
    INDEX 01 00:02:14
  TRACK 06 AUDIO
    TITLE "0:"
    INDEX 01 00:03:21
  TRACK 07 AUDIO
    TITLE "4:cjc137_1098"
    INDEX 01 00:04:27
  TRACK 08 AUDIO
    TITLE "0:"
    INDEX 01 00:05:32
  TRACK 09 AUDIO
    TITLE "6:cjc137_1099"
    INDEX 01 00:05:40
  TRACK 10 AUDIO
    TITLE "0:"
    INDEX 01 00:06:31
  TRACK 11 AUDIO
    TITLE "5:cjc137_1100"
    INDEX 01 00:06:39
  TRACK 12 AUDIO
    TITLE "0:"
    INDEX 01 00:07:43
  TRACK 13 AUDIO
    TITLE "4:cjc137_1101"
    INDEX 01 00:08:50
  TRACK 14 AUDIO
    TITLE "0:"
    INDEX 01 00:09:53
  TRACK 15 AUDIO
    TITLE "6:cjc137_1102"
    INDEX 01 00:09:61
  TRACK 16 AUDIO
    TITLE "0:"
    INDEX 01 00:11:07
  TRACK 17 AUDIO
    TITLE "5:cjc137_1103"
    INDEX 01 00:11:13
  TRACK 18 AUDIO
    TITLE "0:"
    INDEX 01 00:12:16
  TRACK 19 AUDIO
    TITLE "4:cjc137_1104"
    INDEX 01 00:13:24
  TRACK 20 AUDIO
    TITLE "0:"
    INDEX 01 00:14:25
  TRACK 21 AUDIO
    TITLE "6:cjc137_1105"
    INDEX 01 00:14:31
  TRACK 22 AUDIO
    TITLE "0:"
    INDEX 01 00:15:30
  TRACK 23 AUDIO
    TITLE "5:cjc137_1106"
    INDEX 01 00:15:34
  TRACK 24 AUDIO
    TITLE "0:"
    INDEX 01 00:16:34
  TRACK 25 AUDIO
    TITLE "4:cjc137_1107"
    INDEX 01 00:17:39
  TRACK 26 AUDIO
    TITLE "0:"
    INDEX 01 00:18:56
  TRACK 27 AUDIO
    TITLE "6:cjc137_1108"
    INDEX 01 00:18:62
  TRACK 28 AUDIO
    TITLE "0:"
    INDEX 01 00:20:04
  TRACK 29 AUDIO
    TITLE "5:cjc137_1109"
    INDEX 01 00:20:10
  TRACK 30 AUDIO
    TITLE "0:"
    INDEX 01 00:21:27
  TRACK 31 AUDIO
    TITLE "4:cjc137_1110"
    INDEX 01 00:22:34
  TRACK 32 AUDIO
    TITLE "0:"
    INDEX 01 00:23:42
  TRACK 33 AUDIO
    TITLE "6:cjc137_1111"
    INDEX 01 00:23:51
  TRACK 34 AUDIO
    TITLE "0:"
    INDEX 01 00:24:59
  TRACK 35 AUDIO
    TITLE "5:cjc137_1112"
    INDEX 01 00:24:71
  TRACK 36 AUDIO
    TITLE "0:"
    INDEX 01 00:26:05
  TRACK 37 AUDIO
    TITLE "4:cjc137_1113"
    INDEX 01 00:27:12
  TRACK 38 AUDIO
    TITLE "0:"
    INDEX 01 00:28:17
  TRACK 39 AUDIO
    TITLE "6:cjc137_1114"
    INDEX 01 00:28:29
  TRACK 40 AUDIO
    TITLE "0:"
    INDEX 01 00:30:26
  TRACK 41 AUDIO
    TITLE "5:cjc137_1115"
    INDEX 01 00:30:32
  TRACK 42 AUDIO
    TITLE "0:"
    INDEX 01 00:31:37
  TRACK 43 AUDIO
    TITLE "4:cjc137_1116"
    INDEX 01 00:32:48
  TRACK 44 AUDIO
    TITLE "0:"
    INDEX 01 00:33:64
  TRACK 45 AUDIO
    TITLE "6:cjc137_1117"
    INDEX 01 00:33:73
  TRACK 46 AUDIO
    TITLE "0:"
    INDEX 01 00:35:17
  TRACK 47 AUDIO
    TITLE "5:cjc137_1118"
    INDEX 01 00:35:25
  TRACK 48 AUDIO
    TITLE "0:"
    INDEX 01 00:36:40
  TRACK 49 AUDIO
    TITLE "4:cjc137_1119"
    INDEX 01 00:37:50
  TRACK 50 AUDIO
    TITLE "0:"
    INDEX 01 00:38:53
  TRACK 51 AUDIO
    TITLE "6:cjc137_1120"
    INDEX 01 00:38:69
  TRACK 52 AUDIO
    TITLE "0:"
    INDEX 01 00:39:56
  TRACK 53 AUDIO
    TITLE "5:cjc137_1121"
    INDEX 01 00:39:66
  TRACK 54 AUDIO
    TITLE "0:"
    INDEX 01 00:40:68
  TRACK 55 AUDIO
    TITLE "4:cjc137_1122"
    INDEX 01 00:42:12
  TRACK 56 AUDIO
    TITLE "0:"
    INDEX 01 00:43:13
  TRACK 57 AUDIO
    TITLE "6:cjc137_1123"
    INDEX 01 00:43:25
  TRACK 58 AUDIO
    TITLE "0:"
    INDEX 01 00:44:56
  TRACK 59 AUDIO
    TITLE "5:cjc137_1124"
    INDEX 01 00:44:65
  TRACK 60 AUDIO
    TITLE "0:"
    INDEX 01 00:45:67
  TRACK 61 AUDIO
    TITLE "4:cjc137_1125"
    INDEX 01 00:47:01
  TRACK 62 AUDIO
    TITLE "0:"
    INDEX 01 00:48:20
  TRACK 63 AUDIO
    TITLE "6:cjc137_1126"
    INDEX 01 00:48:28
  TRACK 64 AUDIO
    TITLE "0:"
    INDEX 01 00:49:16
  TRACK 65 AUDIO
    TITLE "5:cjc137_1127"
    INDEX 01 00:49:23
  TRACK 66 AUDIO
    TITLE "0:"
    INDEX 01 00:50:42
  TRACK 67 AUDIO
    TITLE "4:cjc137_1128"
    INDEX 01 00:51:50
  TRACK 68 AUDIO
    TITLE "0:"
    INDEX 01 00:52:63
  TRACK 69 AUDIO
    TITLE "6:cjc137_1129"
    INDEX 01 00:52:73
  TRACK 70 AUDIO
    TITLE "0:"
    INDEX 01 00:54:34
  TRACK 71 AUDIO
    TITLE "5:cjc137_1130"
    INDEX 01 00:54:42
  TRACK 72 AUDIO
    TITLE "0:"
    INDEX 01 00:55:53
  TRACK 73 AUDIO
    TITLE "4:cjc137_1131"
    INDEX 01 00:56:63
  TRACK 74 AUDIO
    TITLE "0:"
    INDEX 01 00:57:72
  TRACK 75 AUDIO
    TITLE "6:cjc137_1132"
    INDEX 01 00:58:03
  TRACK 76 AUDIO
    TITLE "0:"
    INDEX 01 00:58:67
  TRACK 77 AUDIO
    TITLE "5:cjc137_1133"
    INDEX 01 00:58:73
  TRACK 78 AUDIO
    TITLE "0:"
    INDEX 01 01:00:06
  TRACK 79 AUDIO
    TITLE "4:cjc137_1134"
    INDEX 01 01:01:13
  TRACK 80 AUDIO
    TITLE "0:"
    INDEX 01 01:02:22
  TRACK 81 AUDIO
    TITLE "6:cjc137_1135"
    INDEX 01 01:02:28
  TRACK 82 AUDIO
    TITLE "0:"
    INDEX 01 01:04:31
  TRACK 83 AUDIO
    TITLE "5:cjc137_1136"
    INDEX 01 01:04:37
  TRACK 84 AUDIO
    TITLE "0:"
    INDEX 01 01:05:44
